<?xml version="1.0" encoding="UTF-8" standalone="no"?>
<svg
   inkscape:export-ydpi="96"
   inkscape:export-xdpi="96"
   inkscape:export-filename="panots-per-imprimir.pdf"
   xml:space="preserve"
   width="45.0mm"
   height="45.0mm"
   viewBox="0 0 45.0 45.0"
   version="1.1"
   id="svg1034"
   sodipodi:docname="panotPCB-4_dissenyPCBArt_fonsVermellFosc.svg"
   inkscape:version="1.4.3 (0d15f75, 2025-12-25)"
   xmlns:inkscape="http://www.inkscape.org/namespaces/inkscape"
   xmlns:sodipodi="http://sodipodi.sourceforge.net/DTD/sodipodi-0.dtd"
   xmlns="http://www.w3.org/2000/svg"
   xmlns:svg="http://www.w3.org/2000/svg"
   xmlns:rdf="http://www.w3.org/1999/02/22-rdf-syntax-ns#"
   xmlns:cc="http://creativecommons.org/ns#"
   xmlns:dc="http://purl.org/dc/elements/1.1/"><sodipodi:namedview
     inkscape:window-maximized="1"
     inkscape:window-y="-6"
     inkscape:window-x="-6"
     inkscape:window-height="730"
     inkscape:window-width="1280"
     fit-margin-bottom="0"
     fit-margin-right="0"
     fit-margin-left="0"
     fit-margin-top="0"
     showgrid="false"
     inkscape:document-rotation="0"
     inkscape:current-layer="g9"
     inkscape:document-units="mm"
     inkscape:cy="84.999996"
     inkscape:cx="45.249998"
     inkscape:zoom="2.0000001"
     inkscape:pageshadow="2"
     inkscape:pageopacity="0.0"
     borderopacity="1.0"
     bordercolor="#666666"
     pagecolor="#ffffff"
     id="base"
     inkscape:showpageshadow="2"
     inkscape:pagecheckerboard="0"
     inkscape:deskcolor="#d1d1d1"><inkscape:page
       x="0"
       y="0"
       width="45"
       height="45"
       id="page2"
       margin="0"
       bleed="0" /></sodipodi:namedview><defs
     id="defs1028"><rect
       x="-445.47726"
       y="-225.26401"
       width="510.12701"
       height="40.406101"
       id="rect6" /><rect
       x="-445.47726"
       y="-225.26401"
       width="510.12701"
       height="40.406101"
       id="rect6-3" /><rect
       x="-445.47726"
       y="-225.26401"
       width="690.12701"
       height="63.263245"
       id="rect6-3-8" /><rect
       x="-445.47726"
       y="-225.26401"
       width="510.12701"
       height="40.406101"
       id="rect6-3-0" /></defs><metadata
     id="metadata1031"><rdf:RDF><cc:Work
         rdf:about=""><dc:format>image/svg+xml</dc:format><dc:type
           rdf:resource="http://purl.org/dc/dcmitype/StillImage" /></cc:Work></rdf:RDF></metadata><g
     inkscape:label="[fixed] BG"
     inkscape:groupmode="layer"
     sodipodi:insensitive="true"
     id="g3"
     style="display:inline"><rect
       x="0"
       y="0"
       width="45"
       height="45"
       style="fill:#ffffff;fill-opacity:1;stroke:none"
       id="rect3" /></g><g
     inkscape:label="Edge.Cuts"
     inkscape:groupmode="layer"
     id="g4"
     style="display:inline"><path
       id="rect1-0-8-2"
       style="display:inline;fill:#000000;fill-opacity:1;stroke-width:1.5;stroke-linecap:round;stroke-linejoin:round"
       inkscape:label="tall_contorn"
       d="M 5.52318,-1e-6 4.9569,0.0284104 4.40734,0.111822 3.87723,0.247498 3.36931,0.432705 2.8863,0.664708 2.43095,0.940773 2.00599,1.25816 1.61415,1.61415 1.25816,2.00599 0.940774,2.43095 0.664709,2.8863 0.432706,3.36931 0.247499,3.87723 0.111823,4.40734 0.0284114,4.9569 0,5.52318 V 39.4767 l 0.0284114,0.5662 0.0834116,0.5496 0.135676,0.5301 0.185207,0.5079 0.232003,0.483 0.276065,0.4554 0.317386,0.4249 0.35599,0.3919 0.39184,0.356 0.42496,0.3174 0.45535,0.276 0.48301,0.232 0.50792,0.1852 0.53011,0.1357 0.54956,0.0834 0.56628,0.0284 H 39.4767 l 0.5662,-0.0284 0.5496,-0.0834 0.5301,-0.1357 0.5079,-0.1852 0.483,-0.232 0.4554,-0.276 0.4249,-0.3174 0.3919,-0.356 0.356,-0.3919 0.3174,-0.4249 0.276,-0.4554 0.232,-0.483 0.1852,-0.5079 0.1357,-0.5301 0.0834,-0.5496 0.0284,-0.5662 V 5.52318 L 44.9714,4.9569 44.888,4.40734 44.7523,3.87723 44.5671,3.36931 44.3351,2.8863 44.0591,2.43095 43.7417,2.00599 43.3857,1.61415 42.9938,1.25816 42.5689,0.940773 42.1135,0.664708 41.6305,0.432705 41.1226,0.247498 40.5925,0.111822 40.0429,0.0284104 39.4767,-1e-6 H 5.52318"
       sodipodi:nodetypes="sssssssss" /></g><g
     inkscape:label="B.Cu-disabled"
     inkscape:groupmode="layer"
     id="g5"
     style="display:inline" /><g
     inkscape:label="B.Mask-disabled"
     inkscape:groupmode="layer"
     id="g6"
     style="display:inline" /><g
     inkscape:label="B.SilkS-disabled"
     inkscape:groupmode="layer"
     id="g7"
     style="display:inline" /><g
     inkscape:label="F.Cu"
     inkscape:groupmode="layer"
     id="g8"
     style="display:inline"><path
       id="path1-9-6-6-2-8"
       style="display:inline;fill:#000000;fill-opacity:1;stroke-width:4.00001;stroke-linecap:round;stroke-linejoin:round"
       inkscape:label="rosa_nomesEstany"
       d="m 30.208492,6.3846232 c -3.23318,1.3e-4 -5.963391,1.8769519 -7.447091,4.5258218 -1.48452,-2.6465199 -4.213463,-4.5217977 -7.445023,-4.5216877 -4.75356,2e-4 -8.650805,3.8965577 -8.650635,8.6501177 1.3e-4,3.20642 1.8497867,5.912697 4.462777,7.406267 -2.7109603,1.46567 -4.6329125,4.240514 -4.6327925,7.519954 1.9e-4,4.75356 3.8970845,8.650288 8.6506345,8.650118 3.31327,-1.4e-4 6.120978,-1.953984 7.572148,-4.710824 1.47318,2.68537 4.229652,4.587694 7.489982,4.587834 4.75356,1.7e-4 8.650445,-3.896558 8.650635,-8.650118 1.2e-4,-3.20483 -1.84848,-5.908309 -4.45916,-7.402649 2.6112,-1.4942 4.45928,-4.198979 4.45916,-7.404199 -1.9e-4,-4.75355 -3.897075,-8.6508048 -8.650635,-8.6506348 z M 22.778971,17.271297 c 2.89975,-1.8e-4 5.250506,2.350576 5.250326,5.250326 -10e-5,2.89954 -2.350776,5.249988 -5.250326,5.249808 -2.89935,-1.1e-4 -5.249698,-2.350468 -5.249808,-5.249808 -1.8e-4,-2.89955 2.350258,-5.250216 5.249808,-5.250326 z m 11.154875,9.766846 c 0.218397,0.291219 0.403183,0.609892 0.548804,0.949813 -0.145619,-0.339919 -0.33041,-0.658595 -0.548804,-0.949813 z"
       sodipodi:nodetypes="cccccccccsccccccccccc" /></g><g
     inkscape:label="F.Mask"
     inkscape:groupmode="layer"
     id="g9"
     style="display:inline"><path
       d="m 6.495764,29.96518 c 1.9e-4,4.75356 3.89708,8.65029 8.65063,8.65012 3.31327,-1.4e-4 6.12098,-1.95398 7.57215,-4.71082 1.47318,2.68537 4.22965,4.58769 7.48998,4.58783 4.75356,1.7e-4 8.65044,-3.89656 8.65063,-8.65012 1.2e-4,-3.20483 -1.84847,-5.90831 -4.45915,-7.40265 2.6112,-1.4942 4.45927,-4.19898 4.45915,-7.4042 -1.9e-4,-4.75355 -3.89707,-8.6508 -8.65063,-8.65063 -3.23318,1.3e-4 -5.96339,1.87695 -7.44709,4.52582 -1.48452,-2.64652 -4.21346,-4.5218 -7.44502,-4.52169 -4.75356,2e-4 -8.65081,3.89656 -8.65064,8.65012 1.3e-4,3.20642 1.84979,5.9127 4.46278,7.40627 -2.71096,1.46567 -4.63291,4.24051 -4.63279,7.51995 z m 4.00027,0 c -8e-5,-2.19757 1.47933,-4.01178 3.50934,-4.5129 0.89537,2.68035 2.96686,4.80438 5.62395,5.76657 -0.53976,1.97138 -2.32671,3.3966 -4.48293,3.39669 -2.5918,10e-5 -4.65025,-2.05856 -4.65036,-4.65036 z m 0.17001,-14.92622 c -9e-5,-2.5918 2.05856,-4.65025 4.65037,-4.65036 2.14962,-8e-5 3.93196,1.41577 4.47776,3.37757 -2.70584,0.92258 -4.83306,3.04446 -5.76244,5.74797 -1.95553,-0.54979 -3.3656,-2.33011 -3.36569,-4.47518 z m 6.86315,7.48275 c -1.8e-4,-2.89955 2.35026,-5.25022 5.24981,-5.25033 2.89975,-1.8e-4 5.2505,2.35058 5.25032,5.25033 -10e-5,2.89954 -2.35077,5.24999 -5.25032,5.24981 -2.89935,-1.1e-4 -5.2497,-2.35047 -5.24981,-5.24981 z m 8.20363,-8.76588 c 0.54816,-1.95813 2.3288,-3.37076 4.4757,-3.37085 2.5918,-9e-5 4.65077,2.05856 4.65088,4.65036 8e-5,2.13472 -1.39663,3.90738 -3.33726,4.4664 -0.93554,-2.70868 -3.07368,-4.83078 -5.78932,-5.74591 z m 0.045,17.51625 c 2.74811,-0.94185 4.89411,-3.12001 5.795,-5.88181 1.91419,0.57509 3.2867,2.33585 3.28662,4.45192 -1.1e-4,2.5918 -2.05908,4.65046 -4.65088,4.65036 -2.0914,-8e-5 -3.83522,-1.34099 -4.43074,-3.22047 z"
       style="display:inline;fill:#000000;fill-opacity:1;stroke-width:4.00001;stroke-linecap:round;stroke-linejoin:round"
       id="path1-9-6-6-2-3"
       inkscape:label="rosa_nomesEstany"
       sodipodi:nodetypes="cccccccccccccccccccccccccccccccccccccc" /><path
       id="rect1-46"
       style="display:inline;fill:#000000;fill-opacity:1;stroke-width:1.5;stroke-linecap:round;stroke-linejoin:round"
       inkscape:label="contorn-senseRes"
       d="M 5.523177,-1e-6 C 2.463336,-1e-6 0,2.463335 0,5.523176 v 33.953483 c 0,3.059841 2.463336,5.523177 5.523177,5.523177 H 39.47666 c 3.059841,0 5.523177,-2.463336 5.523177,-5.523177 V 5.523176 c 0,-3.059841 -2.463336,-5.523177 -5.523177,-5.523177 z m 0.03307,2.500106 h 33.887857 c 1.693105,0 3.056144,1.363039 3.056144,3.056144 v 33.887854 c 0,1.693105 -1.363039,3.056144 -3.056144,3.056144 H 5.55625 c -1.693105,0 -3.056144,-1.363039 -3.056144,-3.056144 V 5.556249 c 0,-1.693105 1.363039,-3.056144 3.056144,-3.056144 z" /><circle
       r="1.75"
       cy="5.5297623"
       cx="5.5297661"
       id="path2-55-7-9-9"
       style="display:inline;fill:#000000;stroke-width:0.00417123;stroke-linecap:round;stroke-linejoin:round;filter:url(#filter1052)" /></g><g
     inkscape:label="F.SilkS"
     inkscape:groupmode="layer"
     id="g10"
     style="display:inline"><path
       d="m 17.529194,22.521709 c -1.8e-4,-2.89955 2.35026,-5.25022 5.24981,-5.25033 2.89975,-1.8e-4 5.2505,2.35058 5.25032,5.25033 -10e-5,2.89954 -2.35077,5.24999 -5.25032,5.24981 -2.89935,-1.1e-4 -5.2497,-2.35047 -5.24981,-5.24981 z"
       style="display:inline;fill:#000000;fill-opacity:1;stroke-width:4.00001;stroke-linecap:round;stroke-linejoin:round"
       id="path1-0-0-0-9-8"
       inkscape:label="cercleCentral_soldermask-i-silkscreen" /></g><g
     inkscape:label="Drill-disabled"
     inkscape:groupmode="layer"
     id="g11"
     style="display:inline" /><g
     transform="translate(-29.999996,-29.999996)"
     style="display:inline;opacity:1"
     id="layer1"
     inkscape:groupmode="layer"
     inkscape:label="panotPCB"><path
       id="rect1"
       style="display:inline;opacity:1;fill:#dfd094;fill-opacity:1;stroke-width:1.5;stroke-linecap:round;stroke-linejoin:round"
       inkscape:label="contorn-senseRes"
       d="m 35.523173,29.999995 c -3.059841,0 -5.523177,2.463336 -5.523177,5.523177 v 33.953483 c 0,3.059841 2.463336,5.523177 5.523177,5.523177 h 33.953483 c 3.059841,0 5.523177,-2.463336 5.523177,-5.523177 V 35.523172 c 0,-3.059841 -2.463336,-5.523177 -5.523177,-5.523177 z m 0.03307,2.500106 H 69.4441 c 1.693105,0 3.056144,1.363039 3.056144,3.056144 v 33.887854 c 0,1.693105 -1.363039,3.056144 -3.056144,3.056144 H 35.556246 c -1.693105,0 -3.056144,-1.363039 -3.056144,-3.056144 V 35.556245 c 0,-1.693105 1.363039,-3.056144 3.056144,-3.056144 z" /><path
       id="rect1-4"
       style="display:inline;fill:#820e05;fill-opacity:1;stroke-width:1.5;stroke-linecap:round;stroke-linejoin:round"
       inkscape:label="fons_estany-i-soldermask"
       d="m 35.556246,32.500102 c -1.693105,0 -3.056144,1.363039 -3.056144,3.056144 V 69.4441 c 0,1.693105 1.363039,3.056144 3.056144,3.056144 H 69.4441 c 1.693105,0 3.056144,-1.363039 3.056144,-3.056144 V 35.556246 c 0,-1.693105 -1.363039,-3.056144 -3.056144,-3.056144 z m 24.652242,3.884517 c 4.75356,-1.7e-4 8.650445,3.897085 8.650635,8.650635 1.2e-4,3.20522 -1.84796,5.909999 -4.45916,7.404199 2.61068,1.49434 4.45928,4.197819 4.45916,7.402649 -1.9e-4,4.75356 -3.897075,8.650288 -8.650635,8.650118 -3.26033,-1.4e-4 -6.016802,-1.902464 -7.489982,-4.587834 -1.45117,2.75684 -4.258878,4.710684 -7.572148,4.710824 -4.75355,1.7e-4 -8.650444,-3.896558 -8.650634,-8.650118 -1.2e-4,-3.27944 1.921832,-6.054284 4.632792,-7.519954 -2.61299,-1.49357 -4.462647,-4.199847 -4.462777,-7.406267 -1.7e-4,-4.75356 3.897075,-8.649918 8.650635,-8.650118 3.23156,-1.1e-4 5.960503,1.875168 7.445023,4.521688 1.4837,-2.64887 4.213911,-4.525692 7.447091,-4.525822 z" /><path
       d="m 36.49576,59.965175 c 1.9e-4,4.75356 3.89708,8.65029 8.65063,8.65012 3.31327,-1.4e-4 6.12098,-1.95398 7.57215,-4.71082 1.47318,2.68537 4.22965,4.58769 7.48998,4.58783 4.75356,1.7e-4 8.65044,-3.89656 8.65063,-8.65012 1.2e-4,-3.20483 -1.84847,-5.90831 -4.45915,-7.40265 2.6112,-1.4942 4.45927,-4.19898 4.45915,-7.4042 -1.9e-4,-4.75355 -3.89707,-8.6508 -8.65063,-8.65063 -3.23318,1.3e-4 -5.96339,1.87695 -7.44709,4.52582 -1.48452,-2.64652 -4.21346,-4.5218 -7.44502,-4.52169 -4.75356,2e-4 -8.65081,3.89656 -8.65064,8.65012 1.3e-4,3.20642 1.84979,5.9127 4.46278,7.40627 -2.71096,1.46567 -4.63291,4.24051 -4.63279,7.51995 z m 4.00027,0 c -8e-5,-2.19757 1.47933,-4.01178 3.50934,-4.5129 0.89537,2.68035 2.96686,4.80438 5.62395,5.76657 -0.53976,1.97138 -2.32671,3.3966 -4.48293,3.39669 -2.5918,1e-4 -4.65025,-2.05856 -4.65036,-4.65036 z m 0.17001,-14.92622 c -9e-5,-2.5918 2.05856,-4.65025 4.65037,-4.65036 2.14962,-8e-5 3.93196,1.41577 4.47776,3.37757 -2.70584,0.92258 -4.83306,3.04446 -5.76244,5.74797 -1.95553,-0.54979 -3.3656,-2.33011 -3.36569,-4.47518 z m 6.86315,7.48275 c -1.8e-4,-2.89955 2.35026,-5.25022 5.24981,-5.25033 2.89975,-1.8e-4 5.2505,2.35058 5.25032,5.25033 -10e-5,2.89954 -2.35077,5.24999 -5.25032,5.24981 -2.89935,-1.1e-4 -5.2497,-2.35047 -5.24981,-5.24981 z m 8.20363,-8.76588 c 0.54816,-1.95813 2.3288,-3.37076 4.4757,-3.37085 2.5918,-9e-5 4.65077,2.05856 4.65088,4.65036 8e-5,2.13472 -1.39663,3.90738 -3.33726,4.4664 -0.93554,-2.70868 -3.07368,-4.83078 -5.78932,-5.74591 z m 0.045,17.51625 c 2.74811,-0.94185 4.89411,-3.12001 5.795,-5.88181 1.91419,0.57509 3.2867,2.33585 3.28662,4.45192 -1.1e-4,2.5918 -2.05908,4.65046 -4.65088,4.65036 -2.0914,-8e-5 -3.83522,-1.34099 -4.43074,-3.22047 z"
       style="display:inline;fill:#b3b3b3;fill-opacity:1;stroke-width:4.00001;stroke-linecap:round;stroke-linejoin:round"
       id="path1-9-6-6-2"
       inkscape:label="rosa_nomesEstany"
       sodipodi:nodetypes="cccccccccccccccccccccccccccccccccccccc" /><path
       d="m 40.66604,45.038955 c -9e-5,-2.5918 2.05856,-4.65025 4.65037,-4.65036 2.14962,-8e-5 3.93196,1.41577 4.47776,3.37757 -2.70584,0.92258 -4.83306,3.04446 -5.76244,5.74797 -1.95553,-0.54979 -3.3656,-2.33011 -3.36569,-4.47518 z m 15.11174,16.23312 c 2.74811,-0.94185 4.89411,-3.12001 5.795,-5.88181 1.91419,0.57509 3.2867,2.33585 3.28662,4.45192 -1.1e-4,2.5918 -2.05908,4.65046 -4.65088,4.65036 -2.0914,-8e-5 -3.83522,-1.34099 -4.43074,-3.22047 z m -15.281749,-1.3069 c -8e-5,-2.19757 1.47933,-4.01178 3.50934,-4.5129 0.89537,2.68035 2.96686,4.80438 5.62395,5.76657 -0.53976,1.97138 -2.32671,3.3966 -4.48293,3.39669 -2.5918,1e-4 -4.65025,-2.05856 -4.65036,-4.65036 z m 15.23679,-16.20935 c 0.54816,-1.95813 2.3288,-3.37076 4.4757,-3.37085 2.5918,-9e-5 4.65077,2.05856 4.65088,4.65036 8e-5,2.13472 -1.39663,3.90738 -3.33726,4.4664 -0.93554,-2.70868 -3.07368,-4.83078 -5.78932,-5.74591 z"
       style="display:inline;fill:#d40000;fill-opacity:1;stroke-width:4.00001;stroke-linecap:round;stroke-linejoin:round"
       id="path1-5-8-0-4"
       inkscape:label="petals_nomesSoldermask"
       sodipodi:nodetypes="ccccccccsccccccccccc" /><path
       d="m 47.52919,52.521705 c -1.8e-4,-2.89955 2.35026,-5.25022 5.24981,-5.25033 2.89975,-1.8e-4 5.2505,2.35058 5.25032,5.25033 -10e-5,2.89954 -2.35077,5.24999 -5.25032,5.24981 -2.89935,-1.1e-4 -5.2497,-2.35047 -5.24981,-5.24981 z"
       style="display:inline;opacity:1;fill:#ffffff;fill-opacity:1;stroke-width:4.00001;stroke-linecap:round;stroke-linejoin:round"
       id="path1-0-0-0-9"
       inkscape:label="cercleCentral_soldermask-i-silkscreen" /><circle
       r="1.75"
       cy="35.529758"
       cx="35.529762"
       id="path2-55-7-9"
       style="display:inline;opacity:1;fill:#ffffff;stroke-width:0.00417123;stroke-linecap:round;stroke-linejoin:round;filter:url(#filter1052)" /><path
       id="rect1-0"
       style="display:none;opacity:0.298539;fill:#00ff00;fill-opacity:1;stroke-width:1.5;stroke-linecap:round;stroke-linejoin:round"
       inkscape:label="tall_contorn"
       d="m 35.523173,29.999995 c -3.059841,0 -5.523177,2.463336 -5.523177,5.523177 v 33.953483 c 0,3.059841 2.463336,5.523177 5.523177,5.523177 h 33.953483 c 3.059841,0 5.523177,-2.463336 5.523177,-5.523177 V 35.523172 c 0,-3.059841 -2.463336,-5.523177 -5.523177,-5.523177 z"
       sodipodi:nodetypes="sssssssss" /></g></svg>
